<?xml version="1.0" encoding="UTF-8" standalone="no"?>
<svg
   xmlns:dc="http://purl.org/dc/elements/1.1/"
   xmlns:cc="http://creativecommons.org/ns#"
   xmlns:rdf="http://www.w3.org/1999/02/22-rdf-syntax-ns#"
   xmlns:svg="http://www.w3.org/2000/svg"
   xmlns="http://www.w3.org/2000/svg"
   xmlns:sodipodi="http://sodipodi.sourceforge.net/DTD/sodipodi-0.dtd"
   xmlns:inkscape="http://www.inkscape.org/namespaces/inkscape"
   version="1.1"
   style="font-family:Lato, 'Helvetica Neue', Helvetica, Arial, sans-serif;font-size:18px;background-color:white;text-rendering:optimizeLegibility;-webkit-font-smoothing:antialiased"
   width="850"
   height="600"
   id="svg4255"
   sodipodi:docname="primary-energy-consumption-by-source-and-region.svg"
   inkscape:version="0.92.4 (5da689c313, 2019-01-14)"
   inkscape:export-filename="/home/louis/Documents/projets/ecoReflexion/beEnCons.png"
   inkscape:export-xdpi="96"
   inkscape:export-ydpi="96">
  <metadata
     id="metadata4261">
    <rdf:RDF>
      <cc:Work
         rdf:about="">
        <dc:format>image/svg+xml</dc:format>
        <dc:type
           rdf:resource="http://purl.org/dc/dcmitype/StillImage" />
      </cc:Work>
    </rdf:RDF>
  </metadata>
  <defs
     id="defs4259" />
  <sodipodi:namedview
     pagecolor="#ffffff"
     bordercolor="#666666"
     borderopacity="1"
     objecttolerance="10"
     gridtolerance="10"
     guidetolerance="10"
     inkscape:pageopacity="0"
     inkscape:pageshadow="2"
     inkscape:window-width="1366"
     inkscape:window-height="704"
     id="namedview4257"
     showgrid="false"
     inkscape:zoom="0.87333333"
     inkscape:cx="217.74809"
     inkscape:cy="300"
     inkscape:window-x="0"
     inkscape:window-y="27"
     inkscape:window-maximized="1"
     inkscape:current-layer="svg4255" />
  <g
     class="HeaderView"
     id="g4034">
    <g
       transform="translate(774, 15) scale(0.29)"
       id="g4022">
      <svg
         width="210"
         height="120"
         viewBox="0 0 210 120"
         version="1.1"
         id="svg4020"
         fill="none">
        <g
           clip-path="url(#clip0)"
           id="g4013" />
        <defs
           id="defs4018">
          <clipPath
             id="clip0">
            <rect
               width="210"
               height="120"
               id="rect4015"
               fill="white" />
          </clipPath>
        </defs>
      </svg>
    </g>
    <a
       href="https://ourworldindata.org/grapher/primary-energy-consumption-by-source-and-region?country=BEL"
       style="font-family:&quot;Playfair Display&quot;, Georgia, &quot;Times New Roman&quot;, serif"
       target="_blank"
       id="a4028">
      <text
         font-size="25.20"
         x="15.0"
         y="35.2"
         id="text4026"
         fill="#555">
        <tspan
           x="15"
           y="35.160000000000004"
           id="tspan4024">Primary energy consumption by source, Belgium</tspan>
      </text>
    </a>
  </g>
  <g
     class="StackedArea"
     id="g4233">
    <defs
       id="defs4039">
      <clipPath
         id="boundsClip-19">
        <rect
           x="85.934"
           y="0"
           width="820"
           height="928.4"
           id="rect4036" />
      </clipPath>
    </defs>
    <g
       class="AxisBoxView"
       id="g4093">
      <g
         class="HorizontalAxis"
         id="g4055">
        <text
           x="85.9"
           y="542.8"
           fill="#666"
           text-anchor="middle"
           font-size="16.2"
           id="text4041">1965</text>
        <text
           x="146.8"
           y="542.8"
           fill="#666"
           text-anchor="middle"
           font-size="16.2"
           id="text4043">1970</text>
        <text
           x="268.4"
           y="542.8"
           fill="#666"
           text-anchor="middle"
           font-size="16.2"
           id="text4045">1980</text>
        <text
           x="390.1"
           y="542.8"
           fill="#666"
           text-anchor="middle"
           font-size="16.2"
           id="text4047">1990</text>
        <text
           x="511.8"
           y="542.8"
           fill="#666"
           text-anchor="middle"
           font-size="16.2"
           id="text4049">2000</text>
        <text
           x="633.4"
           y="542.8"
           fill="#666"
           text-anchor="middle"
           font-size="16.2"
           id="text4051">2010</text>
        <text
           x="730.7"
           y="542.8"
           fill="#666"
           text-anchor="middle"
           font-size="16.2"
           id="text4053">2018</text>
      </g>
      <g
         class="VerticalAxis"
         id="g4073">
        <text
           x="80.93"
           y="521.6"
           fill="#666"
           dominant-baseline="middle"
           text-anchor="end"
           font-size="16.2"
           id="text4057">0 TWh</text>
        <text
           x="80.93"
           y="458.9"
           fill="#666"
           dominant-baseline="middle"
           text-anchor="end"
           font-size="16.2"
           id="text4059">100 TWh</text>
        <text
           x="80.93"
           y="396.1"
           fill="#666"
           dominant-baseline="middle"
           text-anchor="end"
           font-size="16.2"
           id="text4061">200 TWh</text>
        <text
           x="80.93"
           y="333.4"
           fill="#666"
           dominant-baseline="middle"
           text-anchor="end"
           font-size="16.2"
           id="text4063">300 TWh</text>
        <text
           x="80.93"
           y="270.6"
           fill="#666"
           dominant-baseline="middle"
           text-anchor="end"
           font-size="16.2"
           id="text4065">400 TWh</text>
        <text
           x="80.93"
           y="207.9"
           fill="#666"
           dominant-baseline="middle"
           text-anchor="end"
           font-size="16.2"
           id="text4067">500 TWh</text>
        <text
           x="80.93"
           y="145.1"
           fill="#666"
           dominant-baseline="middle"
           text-anchor="end"
           font-size="16.2"
           id="text4069">600 TWh</text>
        <text
           x="80.93"
           y="82.4"
           fill="#666"
           dominant-baseline="middle"
           text-anchor="end"
           font-size="16.2"
           id="text4071">700 TWh</text>
      </g>
      <g
         class="AxisGridLines"
         id="g4091">
        <line
           x1="85.93"
           y1="521.6"
           x2="730.75"
           y2="521.6"
           stroke="#ccc"
           id="line4075" />
        <line
           x1="85.93"
           y1="458.9"
           x2="730.75"
           y2="458.9"
           stroke="#ddd"
           stroke-dasharray="3,2"
           id="line4077" />
        <line
           x1="85.93"
           y1="396.1"
           x2="730.75"
           y2="396.1"
           stroke="#ddd"
           stroke-dasharray="3,2"
           id="line4079" />
        <line
           x1="85.93"
           y1="333.4"
           x2="730.75"
           y2="333.4"
           stroke="#ddd"
           stroke-dasharray="3,2"
           id="line4081" />
        <line
           x1="85.93"
           y1="270.6"
           x2="730.75"
           y2="270.6"
           stroke="#ddd"
           stroke-dasharray="3,2"
           id="line4083" />
        <line
           x1="85.93"
           y1="207.9"
           x2="730.75"
           y2="207.9"
           stroke="#ddd"
           stroke-dasharray="3,2"
           id="line4085" />
        <line
           x1="85.93"
           y1="145.1"
           x2="730.75"
           y2="145.1"
           stroke="#ddd"
           stroke-dasharray="3,2"
           id="line4087" />
        <line
           x1="85.93"
           y1="82.4"
           x2="730.75"
           y2="82.4"
           stroke="#ddd"
           stroke-dasharray="3,2"
           id="line4089" />
      </g>
    </g>
    <g
       clip-path="url(#boundsClip-19)"
       id="g4231">
      <g
         class="HeightedLegend"
         style="cursor:default"
         id="g4193">
        <g
           class="legendMark"
           id="g4107">
          <g
             class="indicator"
             id="g4097">
            <path
               d="M734.745,116.2 H748.245 V92.64999999999999 H761.745"
               stroke="#999"
               stroke-width="0.5"
               fill="none"
               id="path4095" />
          </g>
          <rect
             x="730.745"
             y="78.6"
             width="104.25500000000001"
             height="28.1"
             fill="#fff"
             opacity="0"
             id="rect4099" />
          <text
             font-size="13.50"
             x="765.7"
             y="89.4"
             fill="#34983f"
             id="text4105">
            <tspan
               x="765.745"
               y="89.39999999999999"
               id="tspan4101">Other</tspan>
            <tspan
               x="765.745"
               y="104.25"
               id="tspan4103">renewables</tspan>
          </text>
        </g>
        <g
           class="legendMark"
           id="g4119">
          <g
             class="indicator"
             id="g4111">
            <path
               d="M734.745,119.1 H754.995 V115.44999999999999 H761.745"
               stroke="#999"
               stroke-width="0.5"
               fill="none"
               id="path4109" />
          </g>
          <rect
             x="730.745"
             y="108.69999999999999"
             width="66.59"
             height="13.5"
             fill="#fff"
             opacity="0"
             id="rect4113" />
          <text
             font-size="13.50"
             x="765.7"
             y="119.5"
             fill="#ca2628"
             id="text4117">
            <tspan
               x="765.745"
               y="119.49999999999999"
               id="tspan4115">Solar</tspan>
          </text>
        </g>
        <g
           class="legendMark"
           id="g4131">
          <g
             class="indicator"
             id="g4123">
            <path
               d="M734.745,122.7 H754.995 V130.95 H761.745"
               stroke="#999"
               stroke-width="0.5"
               fill="none"
               id="path4121" />
          </g>
          <rect
             x="730.745"
             y="124.19999999999999"
             width="65.78"
             height="13.5"
             fill="#fff"
             opacity="0"
             id="rect4125" />
          <text
             font-size="13.50"
             x="765.7"
             y="135.0"
             fill="#ffd53e"
             id="text4129">
            <tspan
               x="765.745"
               y="135"
               id="tspan4127">Wind</tspan>
          </text>
        </g>
        <g
           class="legendMark"
           id="g4143">
          <g
             class="indicator"
             id="g4135">
            <path
               d="M734.745,134 H748.245 V146.45 H761.745"
               stroke="#999"
               stroke-width="0.5"
               fill="none"
               id="path4133" />
          </g>
          <rect
             x="730.745"
             y="139.7"
             width="81.575"
             height="13.5"
             fill="#fff"
             opacity="0"
             id="rect4137" />
          <text
             font-size="13.50"
             x="765.7"
             y="150.5"
             fill="#818282"
             id="text4141">
            <tspan
               x="765.745"
               y="150.5"
               id="tspan4139">Nuclear</tspan>
          </text>
        </g>
        <g
           class="legendMark"
           id="g4155">
          <g
             class="indicator"
             id="g4147">
            <path
               d="M734.745,143 H741.495 V161.95 H761.745"
               stroke="#999"
               stroke-width="0.5"
               fill="none"
               id="path4145" />
          </g>
          <rect
             x="730.745"
             y="155.2"
             width="71.045"
             height="13.5"
             fill="#fff"
             opacity="0"
             id="rect4149" />
          <text
             font-size="13.50"
             x="765.7"
             y="166.0"
             fill="#3360a9"
             id="text4153">
            <tspan
               x="765.745"
               y="166"
               id="tspan4151">Hydro</tspan>
          </text>
        </g>
        <g
           class="legendMark"
           id="g4167">
          <g
             class="indicator"
             id="g4159">
            <path
               d="M734.745,196.1 H748.245 V196.1 H761.745"
               stroke="#999"
               stroke-width="0.5"
               fill="none"
               id="path4157" />
          </g>
          <rect
             x="730.745"
             y="189.35"
             width="59.84"
             height="13.5"
             fill="#fff"
             opacity="0"
             id="rect4161" />
          <text
             font-size="13.50"
             x="765.7"
             y="200.2"
             fill="#7ec7ce"
             id="text4165">
            <tspan
               x="765.745"
               y="200.15"
               id="tspan4163">Gas</tspan>
          </text>
        </g>
        <g
           class="legendMark"
           id="g4179">
          <g
             class="indicator"
             id="g4171">
            <path
               d="M734.745,260.9 H748.245 V260.9 H761.745"
               stroke="#999"
               stroke-width="0.5"
               fill="none"
               id="path4169" />
          </g>
          <rect
             x="730.745"
             y="254.14999999999998"
             width="62.81"
             height="13.5"
             fill="#fff"
             opacity="0"
             id="rect4173" />
          <text
             font-size="13.50"
             x="765.7"
             y="264.9"
             fill="#a652ba"
             id="text4177">
            <tspan
               x="765.745"
               y="264.95"
               id="tspan4175">Coal</tspan>
          </text>
        </g>
        <g
           class="legendMark"
           id="g4191">
          <g
             class="indicator"
             id="g4183">
            <path
               d="M734.745,397.3 H748.245 V397.3 H761.745"
               stroke="#999"
               stroke-width="0.5"
               fill="none"
               id="path4181" />
          </g>
          <rect
             x="730.745"
             y="390.55"
             width="51.47"
             height="13.5"
             fill="#fff"
             opacity="0"
             id="rect4185" />
          <text
             font-size="13.50"
             x="765.7"
             y="401.4"
             fill="#ed6c2d"
             id="text4189">
            <tspan
               x="765.745"
               y="401.35"
               id="tspan4187">Oil</tspan>
          </text>
        </g>
      </g>
      <g
         class="Areas"
         id="g4229">
        <rect
           x="85.934"
           y="78.6"
           width="644.811"
           height="443"
           opacity="0"
           fill="rgba(255,255,255,0)"
           id="rect4195" />
        <path
           class="Belgium_5-area"
           stroke-linecap="round"
           d="M85.9 403.3L98.1 401L110.3 388.6L122.4 367.1L134.6 343.4L146.8 327.2L158.9 322.4L171.1 306.1L183.3 295.3L195.4 322.3L207.6 332.4L219.8 324.3L231.9 327.5L244.1 314.5L256.3 315.8L268.4 331.4L280.6 347.2L292.8 356.5L304.9 371.8L317.1 376.6L329.3 374.5L341.4 355.4L353.6 354.2L365.8 348.9L377.9 352L390.1 341L402.3 328.3L414.4 325.1L426.6 328.3L438.8 310.2L450.9 312.4L463.1 294.8L475.3 289.6L487.4 286.2L499.6 294.2L511.8 288.5L523.9 284.8L536.1 283.6L548.3 270.6L560.4 267.8L572.6 267.3L584.8 267.6L596.9 264.8L609.1 252.6L621.2 277.8L633.4 267.8L645.6 284.7L657.7 291.7L669.9 285.8L682.1 288.1L694.2 281.3L706.4 275.9L718.6 275.4L730.7 272.9L730.745 521.6L85.934 521.6"
           fill="#ed6c2d"
           fill-opacity="0.7"
           id="path4197" />
        <path
           class="Belgium_6-area"
           stroke-linecap="round"
           d="M85.9 263.5L98.1 273.3L110.3 263.3L122.4 237.8L134.6 217.5L146.8 208.5L158.9 224.1L171.1 212.2L183.3 216.5L195.4 238L207.6 269.5L219.8 258.7L231.9 261L244.1 246.4L256.3 239.9L268.4 254.9L280.6 268L292.8 277.1L304.9 304.1L317.1 298.1L329.3 296.1L341.4 288.5L353.6 287.6L365.8 281.7L377.9 281.4L390.1 263.5L402.3 254.1L414.4 258.7L426.6 265.4L438.8 242.6L450.9 247.8L463.1 233L475.3 231.9L487.4 228.8L499.6 243.9L511.8 232.8L523.9 231.8L536.1 238.2L548.3 226.6L560.4 226.9L572.6 229.7L584.8 230.6L596.9 230.9L609.1 219.2L621.2 256.2L633.4 240.4L645.6 258.9L657.7 267.4L669.9 260.9L682.1 263.7L694.2 256.6L706.4 252.6L718.6 252.6L730.7 249L730.7 272.9L718.6 275.4L706.4 275.9L694.2 281.3L682.1 288.1L669.9 285.8L657.7 291.7L645.6 284.7L633.4 267.8L621.2 277.8L609.1 252.6L596.9 264.8L584.8 267.6L572.6 267.3L560.4 267.8L548.3 270.6L536.1 283.6L523.9 284.8L511.8 288.5L499.6 294.2L487.4 286.2L475.3 289.6L463.1 294.8L450.9 312.4L438.8 310.2L426.6 328.3L414.4 325.1L402.3 328.3L390.1 341L377.9 352L365.8 348.9L353.6 354.2L341.4 355.4L329.3 374.5L317.1 376.6L304.9 371.8L292.8 356.5L280.6 347.2L268.4 331.4L256.3 315.8L244.1 314.5L231.9 327.5L219.8 324.3L207.6 332.4L195.4 322.3L183.3 295.3L171.1 306.1L158.9 322.4L146.8 327.2L134.6 343.4L122.4 367.1L110.3 388.6L98.1 401L85.9 403.3"
           fill="#a652ba"
           fill-opacity="0.7"
           id="path4199" />
        <path
           class="Belgium_7-area"
           stroke-linecap="round"
           d="M85.9 263L98.1 272.5L110.3 260.1L122.4 230.1L134.6 201.6L146.8 183.6L158.9 189.7L171.1 168.8L183.3 164.4L195.4 176.9L207.6 209.1L219.8 194.9L231.9 198.3L244.1 184.2L256.3 171.9L268.4 189.8L280.6 208L292.8 227.1L304.9 252.1L317.1 244.5L329.3 242.3L341.4 240.1L353.6 234.3L365.8 229L377.9 222.9L390.1 203.4L402.3 190L414.4 192.7L426.6 196.3L438.8 172L450.9 169.7L463.1 146.1L475.3 149.1L487.4 138L499.6 147L511.8 135.4L523.9 135.6L536.1 138.8L548.3 120.8L560.4 119L572.6 123.7L584.8 121.4L596.9 121L609.1 110L621.2 146L633.4 118.7L645.6 155.2L657.7 162.4L669.9 157.1L682.1 173L694.2 157.2L706.4 151.1L718.6 149.6L730.7 143.1L730.7 249L718.6 252.6L706.4 252.6L694.2 256.6L682.1 263.7L669.9 260.9L657.7 267.4L645.6 258.9L633.4 240.4L621.2 256.2L609.1 219.2L596.9 230.9L584.8 230.6L572.6 229.7L560.4 226.9L548.3 226.6L536.1 238.2L523.9 231.8L511.8 232.8L499.6 243.9L487.4 228.8L475.3 231.9L463.1 233L450.9 247.8L438.8 242.6L426.6 265.4L414.4 258.7L402.3 254.1L390.1 263.5L377.9 281.4L365.8 281.7L353.6 287.6L341.4 288.5L329.3 296.1L317.1 298.1L304.9 304.1L292.8 277.1L280.6 268L268.4 254.9L256.3 239.9L244.1 246.4L231.9 261L219.8 258.7L207.6 269.5L195.4 238L183.3 216.5L171.1 212.2L158.9 224.1L146.8 208.5L134.6 217.5L122.4 237.8L110.3 263.3L98.1 273.3L85.9 263.5"
           fill="#7ec7ce"
           fill-opacity="0.7"
           id="path4201" />
        <path
           class="Belgium_1-area"
           stroke-linecap="round"
           d="M85.9 262.8L98.1 272.3L110.3 260L122.4 230L134.6 201.4L146.8 183.4L158.9 189.6L171.1 168.7L183.3 164.3L195.4 176.8L207.6 209L219.8 194.9L231.9 198.1L244.1 184L256.3 171.8L268.4 189.7L280.6 207.8L292.8 226.9L304.9 251.9L317.1 244.3L329.3 242.1L341.4 239.9L353.6 234L365.8 228.8L377.9 222.7L390.1 203.2L402.3 189.9L414.4 192.5L426.6 196.1L438.8 171.8L450.9 169.5L463.1 146L475.3 148.9L487.4 137.8L499.6 146.8L511.8 135.1L523.9 135.3L536.1 138.6L548.3 120.6L560.4 118.8L572.6 123.6L584.8 121.2L596.9 120.7L609.1 109.7L621.2 145.7L633.4 118.5L645.6 155.1L657.7 162.2L669.9 156.9L682.1 172.8L694.2 157L706.4 150.8L718.6 149.5L730.7 142.9L730.7 143.1L718.6 149.6L706.4 151.1L694.2 157.2L682.1 173L669.9 157.1L657.7 162.4L645.6 155.2L633.4 118.7L621.2 146L609.1 110L596.9 121L584.8 121.4L572.6 123.7L560.4 119L548.3 120.8L536.1 138.8L523.9 135.6L511.8 135.4L499.6 147L487.4 138L475.3 149.1L463.1 146.1L450.9 169.7L438.8 172L426.6 196.3L414.4 192.7L402.3 190L390.1 203.4L377.9 222.9L365.8 229L353.6 234.3L341.4 240.1L329.3 242.3L317.1 244.5L304.9 252.1L292.8 227.1L280.6 208L268.4 189.8L256.3 171.9L244.1 184.2L231.9 198.3L219.8 194.9L207.6 209.1L195.4 176.9L183.3 164.4L171.1 168.8L158.9 189.7L146.8 183.6L134.6 201.6L122.4 230.1L110.3 260.1L98.1 272.5L85.9 263"
           fill="#3360a9"
           fill-opacity="0.7"
           id="path4203" />
        <path
           class="Belgium_2-area"
           stroke-linecap="round"
           d="M85.9 262.8L98.1 272.3L110.3 259.9L122.4 229.9L134.6 201.4L146.8 183.4L158.9 189.6L171.1 168.7L183.3 164.3L195.4 176.7L207.6 204.8L219.8 188.6L231.9 190.6L244.1 176.2L256.3 164.6L268.4 181.8L280.6 199.7L292.8 217.1L304.9 236.8L317.1 226.8L329.3 220.4L341.4 215.2L353.6 207.7L365.8 201.8L377.9 196.8L390.1 176.4L402.3 163L414.4 165.2L426.6 169.8L438.8 146.3L450.9 143.5L463.1 118.8L475.3 119.1L487.4 108.8L499.6 116L511.8 104.9L523.9 106.2L536.1 108.9L548.3 90.9L560.4 89.1L572.6 93.7L584.8 92L596.9 90.4L609.1 81.1L621.2 116.1L633.4 88.4L645.6 124.8L657.7 136.9L669.9 130.1L682.1 151.6L694.2 140.6L706.4 123.5L718.6 123L730.7 125.1L730.7 142.9L718.6 149.5L706.4 150.8L694.2 157L682.1 172.8L669.9 156.9L657.7 162.2L645.6 155.1L633.4 118.5L621.2 145.7L609.1 109.7L596.9 120.7L584.8 121.2L572.6 123.6L560.4 118.8L548.3 120.6L536.1 138.6L523.9 135.3L511.8 135.1L499.6 146.8L487.4 137.8L475.3 148.9L463.1 146L450.9 169.5L438.8 171.8L426.6 196.1L414.4 192.5L402.3 189.9L390.1 203.2L377.9 222.7L365.8 228.8L353.6 234L341.4 239.9L329.3 242.1L317.1 244.3L304.9 251.9L292.8 226.9L280.6 207.8L268.4 189.7L256.3 171.8L244.1 184L231.9 198.1L219.8 194.9L207.6 209L195.4 176.8L183.3 164.3L171.1 168.7L158.9 189.6L146.8 183.4L134.6 201.4L122.4 230L110.3 260L98.1 272.3L85.9 262.8"
           fill="#818282"
           fill-opacity="0.7"
           id="path4205" />
        <path
           class="Belgium_3-area"
           stroke-linecap="round"
           d="M85.9 262.8L98.1 272.3L110.3 259.9L122.4 229.9L134.6 201.4L146.8 183.4L158.9 189.6L171.1 168.7L183.3 164.3L195.4 176.7L207.6 204.8L219.8 188.6L231.9 190.6L244.1 176.2L256.3 164.6L268.4 181.8L280.6 199.7L292.8 217.1L304.9 236.8L317.1 226.8L329.3 220.4L341.4 215.2L353.6 207.7L365.8 201.8L377.9 196.8L390.1 176.4L402.3 163L414.4 165.2L426.6 169.8L438.8 146.3L450.9 143.5L463.1 118.8L475.3 119.1L487.4 108.8L499.6 116L511.8 104.9L523.9 106.2L536.1 108.8L548.3 90.8L560.4 89L572.6 93.6L584.8 91.7L596.9 90.1L609.1 80.7L621.2 115.5L633.4 87.6L645.6 123.4L657.7 135.2L669.9 127.8L682.1 148.7L694.2 137.1L706.4 120.1L718.6 118.9L730.7 120.4L730.7 125.1L718.6 123L706.4 123.5L694.2 140.6L682.1 151.6L669.9 130.1L657.7 136.9L645.6 124.8L633.4 88.4L621.2 116.1L609.1 81.1L596.9 90.4L584.8 92L572.6 93.7L560.4 89.1L548.3 90.9L536.1 108.9L523.9 106.2L511.8 104.9L499.6 116L487.4 108.8L475.3 119.1L463.1 118.8L450.9 143.5L438.8 146.3L426.6 169.8L414.4 165.2L402.3 163L390.1 176.4L377.9 196.8L365.8 201.8L353.6 207.7L341.4 215.2L329.3 220.4L317.1 226.8L304.9 236.8L292.8 217.1L280.6 199.7L268.4 181.8L256.3 164.6L244.1 176.2L231.9 190.6L219.8 188.6L207.6 204.8L195.4 176.7L183.3 164.3L171.1 168.7L158.9 189.6L146.8 183.4L134.6 201.4L122.4 229.9L110.3 259.9L98.1 272.3L85.9 262.8"
           fill="#ffd53e"
           fill-opacity="0.7"
           id="path4207" />
        <path
           class="Belgium_0-area"
           stroke-linecap="round"
           d="M85.9 262.8L98.1 272.3L110.3 259.9L122.4 229.9L134.6 201.4L146.8 183.4L158.9 189.6L171.1 168.7L183.3 164.3L195.4 176.7L207.6 204.8L219.8 188.6L231.9 190.6L244.1 176.2L256.3 164.6L268.4 181.8L280.6 199.7L292.8 217.1L304.9 236.8L317.1 226.8L329.3 220.4L341.4 215.2L353.6 207.7L365.8 201.8L377.9 196.8L390.1 176.4L402.3 163L414.4 165.2L426.6 169.8L438.8 146.3L450.9 143.5L463.1 118.8L475.3 119.1L487.4 108.8L499.6 116L511.8 104.9L523.9 106.2L536.1 108.8L548.3 90.8L560.4 89L572.6 93.6L584.8 91.7L596.9 90.1L609.1 80.7L621.2 115.4L633.4 87.2L645.6 122.7L657.7 133.8L669.9 126.2L682.1 146.9L694.2 135.2L706.4 118.2L718.6 116.8L730.7 117.9L730.7 120.4L718.6 118.9L706.4 120.1L694.2 137.1L682.1 148.7L669.9 127.8L657.7 135.2L645.6 123.4L633.4 87.6L621.2 115.5L609.1 80.7L596.9 90.1L584.8 91.7L572.6 93.6L560.4 89L548.3 90.8L536.1 108.8L523.9 106.2L511.8 104.9L499.6 116L487.4 108.8L475.3 119.1L463.1 118.8L450.9 143.5L438.8 146.3L426.6 169.8L414.4 165.2L402.3 163L390.1 176.4L377.9 196.8L365.8 201.8L353.6 207.7L341.4 215.2L329.3 220.4L317.1 226.8L304.9 236.8L292.8 217.1L280.6 199.7L268.4 181.8L256.3 164.6L244.1 176.2L231.9 190.6L219.8 188.6L207.6 204.8L195.4 176.7L183.3 164.3L171.1 168.7L158.9 189.6L146.8 183.4L134.6 201.4L122.4 229.9L110.3 259.9L98.1 272.3L85.9 262.8"
           fill="#ca2628"
           fill-opacity="0.7"
           id="path4209" />
        <path
           class="Belgium_4-area"
           stroke-linecap="round"
           d="M85.9 262.8L98.1 272.3L110.3 259.9L122.4 229.9L134.6 201.4L146.8 183.4L158.9 189.6L171.1 168.7L183.3 164.2L195.4 176.6L207.6 204.7L219.8 188.5L231.9 190.5L244.1 176L256.3 164.4L268.4 181.6L280.6 199.5L292.8 217.1L304.9 236.7L317.1 226.8L329.3 220.3L341.4 215.1L353.6 207.6L365.8 201.6L377.9 196.7L390.1 176.2L402.3 162.8L414.4 165L426.6 169.7L438.8 146.1L450.9 143.3L463.1 118.6L475.3 119L487.4 108.6L499.6 115.7L511.8 104.5L523.9 105.8L536.1 108.4L548.3 90.3L560.4 88.4L572.6 92.6L584.8 90.3L596.9 88.5L609.1 78.6L621.2 112.9L633.4 84.5L645.6 119.7L657.7 130.6L669.9 123L682.1 144.1L694.2 131.7L706.4 114.8L718.6 113.2L730.7 114.5L730.7 117.9L718.6 116.8L706.4 118.2L694.2 135.2L682.1 146.9L669.9 126.2L657.7 133.8L645.6 122.7L633.4 87.2L621.2 115.4L609.1 80.7L596.9 90.1L584.8 91.7L572.6 93.6L560.4 89L548.3 90.8L536.1 108.8L523.9 106.2L511.8 104.9L499.6 116L487.4 108.8L475.3 119.1L463.1 118.8L450.9 143.5L438.8 146.3L426.6 169.8L414.4 165.2L402.3 163L390.1 176.4L377.9 196.8L365.8 201.8L353.6 207.7L341.4 215.2L329.3 220.4L317.1 226.8L304.9 236.8L292.8 217.1L280.6 199.7L268.4 181.8L256.3 164.6L244.1 176.2L231.9 190.6L219.8 188.6L207.6 204.8L195.4 176.7L183.3 164.3L171.1 168.7L158.9 189.6L146.8 183.4L134.6 201.4L122.4 229.9L110.3 259.9L98.1 272.3L85.9 262.8"
           fill="#34983f"
           fill-opacity="0.7"
           id="path4211" />
        <path
           class="Belgium_5-border"
           stroke-linecap="round"
           d="M85.9 403.3L98.1 401L110.3 388.6L122.4 367.1L134.6 343.4L146.8 327.2L158.9 322.4L171.1 306.1L183.3 295.3L195.4 322.3L207.6 332.4L219.8 324.3L231.9 327.5L244.1 314.5L256.3 315.8L268.4 331.4L280.6 347.2L292.8 356.5L304.9 371.8L317.1 376.6L329.3 374.5L341.4 355.4L353.6 354.2L365.8 348.9L377.9 352L390.1 341L402.3 328.3L414.4 325.1L426.6 328.3L438.8 310.2L450.9 312.4L463.1 294.8L475.3 289.6L487.4 286.2L499.6 294.2L511.8 288.5L523.9 284.8L536.1 283.6L548.3 270.6L560.4 267.8L572.6 267.3L584.8 267.6L596.9 264.8L609.1 252.6L621.2 277.8L633.4 267.8L645.6 284.7L657.7 291.7L669.9 285.8L682.1 288.1L694.2 281.3L706.4 275.9L718.6 275.4L730.7 272.9"
           stroke="rgb(198, 90, 38)"
           stroke-opacity="0.7"
           stroke-width="0.5"
           fill="none"
           id="path4213" />
        <path
           class="Belgium_6-border"
           stroke-linecap="round"
           d="M85.9 263.5L98.1 273.3L110.3 263.3L122.4 237.8L134.6 217.5L146.8 208.5L158.9 224.1L171.1 212.2L183.3 216.5L195.4 238L207.6 269.5L219.8 258.7L231.9 261L244.1 246.4L256.3 239.9L268.4 254.9L280.6 268L292.8 277.1L304.9 304.1L317.1 298.1L329.3 296.1L341.4 288.5L353.6 287.6L365.8 281.7L377.9 281.4L390.1 263.5L402.3 254.1L414.4 258.7L426.6 265.4L438.8 242.6L450.9 247.8L463.1 233L475.3 231.9L487.4 228.8L499.6 243.9L511.8 232.8L523.9 231.8L536.1 238.2L548.3 226.6L560.4 226.9L572.6 229.7L584.8 230.6L596.9 230.9L609.1 219.2L621.2 256.2L633.4 240.4L645.6 258.9L657.7 267.4L669.9 260.9L682.1 263.7L694.2 256.6L706.4 252.6L718.6 252.6L730.7 249"
           stroke="rgb(139, 69, 156)"
           stroke-opacity="0.7"
           stroke-width="0.5"
           fill="none"
           id="path4215" />
        <path
           class="Belgium_7-border"
           stroke-linecap="round"
           d="M85.9 263L98.1 272.5L110.3 260.1L122.4 230.1L134.6 201.6L146.8 183.6L158.9 189.7L171.1 168.8L183.3 164.4L195.4 176.9L207.6 209.1L219.8 194.9L231.9 198.3L244.1 184.2L256.3 171.9L268.4 189.8L280.6 208L292.8 227.1L304.9 252.1L317.1 244.5L329.3 242.3L341.4 240.1L353.6 234.3L365.8 229L377.9 222.9L390.1 203.4L402.3 190L414.4 192.7L426.6 196.3L438.8 172L450.9 169.7L463.1 146.1L475.3 149.1L487.4 138L499.6 147L511.8 135.4L523.9 135.6L536.1 138.8L548.3 120.8L560.4 119L572.6 123.7L584.8 121.4L596.9 121L609.1 110L621.2 146L633.4 118.7L645.6 155.2L657.7 162.4L669.9 157.1L682.1 173L694.2 157.2L706.4 151.1L718.6 149.6L730.7 143.1"
           stroke="rgb(105, 166, 172)"
           stroke-opacity="0.7"
           stroke-width="0.5"
           fill="none"
           id="path4217" />
        <path
           class="Belgium_1-border"
           stroke-linecap="round"
           d="M85.9 262.8L98.1 272.3L110.3 260L122.4 230L134.6 201.4L146.8 183.4L158.9 189.6L171.1 168.7L183.3 164.3L195.4 176.8L207.6 209L219.8 194.9L231.9 198.1L244.1 184L256.3 171.8L268.4 189.7L280.6 207.8L292.8 226.9L304.9 251.9L317.1 244.3L329.3 242.1L341.4 239.9L353.6 234L365.8 228.8L377.9 222.7L390.1 203.2L402.3 189.9L414.4 192.5L426.6 196.1L438.8 171.8L450.9 169.5L463.1 146L475.3 148.9L487.4 137.8L499.6 146.8L511.8 135.1L523.9 135.3L536.1 138.6L548.3 120.6L560.4 118.8L572.6 123.6L584.8 121.2L596.9 120.7L609.1 109.7L621.2 145.7L633.4 118.5L645.6 155.1L657.7 162.2L669.9 156.9L682.1 172.8L694.2 157L706.4 150.8L718.6 149.5L730.7 142.9"
           stroke="rgb(43, 80, 141)"
           stroke-opacity="0.7"
           stroke-width="0.5"
           fill="none"
           id="path4219" />
        <path
           class="Belgium_2-border"
           stroke-linecap="round"
           d="M85.9 262.8L98.1 272.3L110.3 259.9L122.4 229.9L134.6 201.4L146.8 183.4L158.9 189.6L171.1 168.7L183.3 164.3L195.4 176.7L207.6 204.8L219.8 188.6L231.9 190.6L244.1 176.2L256.3 164.6L268.4 181.8L280.6 199.7L292.8 217.1L304.9 236.8L317.1 226.8L329.3 220.4L341.4 215.2L353.6 207.7L365.8 201.8L377.9 196.8L390.1 176.4L402.3 163L414.4 165.2L426.6 169.8L438.8 146.3L450.9 143.5L463.1 118.8L475.3 119.1L487.4 108.8L499.6 116L511.8 104.9L523.9 106.2L536.1 108.9L548.3 90.9L560.4 89.1L572.6 93.7L584.8 92L596.9 90.4L609.1 81.1L621.2 116.1L633.4 88.4L645.6 124.8L657.7 136.9L669.9 130.1L682.1 151.6L694.2 140.6L706.4 123.5L718.6 123L730.7 125.1"
           stroke="rgb(108, 109, 109)"
           stroke-opacity="0.7"
           stroke-width="0.5"
           fill="none"
           id="path4221" />
        <path
           class="Belgium_3-border"
           stroke-linecap="round"
           d="M85.9 262.8L98.1 272.3L110.3 259.9L122.4 229.9L134.6 201.4L146.8 183.4L158.9 189.6L171.1 168.7L183.3 164.3L195.4 176.7L207.6 204.8L219.8 188.6L231.9 190.6L244.1 176.2L256.3 164.6L268.4 181.8L280.6 199.7L292.8 217.1L304.9 236.8L317.1 226.8L329.3 220.4L341.4 215.2L353.6 207.7L365.8 201.8L377.9 196.8L390.1 176.4L402.3 163L414.4 165.2L426.6 169.8L438.8 146.3L450.9 143.5L463.1 118.8L475.3 119.1L487.4 108.8L499.6 116L511.8 104.9L523.9 106.2L536.1 108.8L548.3 90.8L560.4 89L572.6 93.6L584.8 91.7L596.9 90.1L609.1 80.7L621.2 115.5L633.4 87.6L645.6 123.4L657.7 135.2L669.9 127.8L682.1 148.7L694.2 137.1L706.4 120.1L718.6 118.9L730.7 120.4"
           stroke="rgb(213, 178, 52)"
           stroke-opacity="0.7"
           stroke-width="0.5"
           fill="none"
           id="path4223" />
        <path
           class="Belgium_0-border"
           stroke-linecap="round"
           d="M85.9 262.8L98.1 272.3L110.3 259.9L122.4 229.9L134.6 201.4L146.8 183.4L158.9 189.6L171.1 168.7L183.3 164.3L195.4 176.7L207.6 204.8L219.8 188.6L231.9 190.6L244.1 176.2L256.3 164.6L268.4 181.8L280.6 199.7L292.8 217.1L304.9 236.8L317.1 226.8L329.3 220.4L341.4 215.2L353.6 207.7L365.8 201.8L377.9 196.8L390.1 176.4L402.3 163L414.4 165.2L426.6 169.8L438.8 146.3L450.9 143.5L463.1 118.8L475.3 119.1L487.4 108.8L499.6 116L511.8 104.9L523.9 106.2L536.1 108.8L548.3 90.8L560.4 89L572.6 93.6L584.8 91.7L596.9 90.1L609.1 80.7L621.2 115.4L633.4 87.2L645.6 122.7L657.7 133.8L669.9 126.2L682.1 146.9L694.2 135.2L706.4 118.2L718.6 116.8L730.7 117.9"
           stroke="rgb(169, 32, 33)"
           stroke-opacity="0.7"
           stroke-width="0.5"
           fill="none"
           id="path4225" />
        <path
           class="Belgium_4-border"
           stroke-linecap="round"
           d="M85.9 262.8L98.1 272.3L110.3 259.9L122.4 229.9L134.6 201.4L146.8 183.4L158.9 189.6L171.1 168.7L183.3 164.2L195.4 176.6L207.6 204.7L219.8 188.5L231.9 190.5L244.1 176L256.3 164.4L268.4 181.6L280.6 199.5L292.8 217.1L304.9 236.7L317.1 226.8L329.3 220.3L341.4 215.1L353.6 207.6L365.8 201.6L377.9 196.7L390.1 176.2L402.3 162.8L414.4 165L426.6 169.7L438.8 146.1L450.9 143.3L463.1 118.6L475.3 119L487.4 108.6L499.6 115.7L511.8 104.5L523.9 105.8L536.1 108.4L548.3 90.3L560.4 88.4L572.6 92.6L584.8 90.3L596.9 88.5L609.1 78.6L621.2 112.9L633.4 84.5L645.6 119.7L657.7 130.6L669.9 123L682.1 144.1L694.2 131.7L706.4 114.8L718.6 113.2L730.7 114.5"
           stroke="rgb(44, 127, 53)"
           stroke-opacity="0.7"
           stroke-width="0.5"
           fill="none"
           id="path4227" />
      </g>
    </g>
  </g>
  <g
     class="SourcesFooter"
     style="fill:#777"
     id="g4253">
    <g
       class="clickable"
       style="fill:#777"
       id="g4239">
      <text
         font-size="12.60"
         x="15.0"
         y="567.9"
         id="text4237">
        <tspan
           x="15"
           y="567.88"
           id="tspan4235">Source: BP Statistical Review</tspan>
      </text>
    </g>
    <text
       font-size="12.60"
       x="15.0"
       y="582.5"
       id="text4243">
      <tspan
         x="15"
         y="582.48"
         id="tspan4241">Note: 'Other renewables' includes renewable sources including geothermal, biomass and waste.</tspan>
    </text>
  </g>
</svg>
